<?xml version="1.0" encoding="UTF-8" standalone="no"?>
<!-- Created with Inkscape (http://www.inkscape.org/) -->

<svg
   version="1.1"
   id="svg1"
   width="699.22101"
   height="336.86932"
   viewBox="0 0 699.22101 336.86932"
   sodipodi:docname="125a.svg"
   inkscape:version="1.3 (0e150ed6c4, 2023-07-21)"
   xmlns:inkscape="http://www.inkscape.org/namespaces/inkscape"
   xmlns:sodipodi="http://sodipodi.sourceforge.net/DTD/sodipodi-0.dtd"
   xmlns="http://www.w3.org/2000/svg"
   xmlns:svg="http://www.w3.org/2000/svg">
  <defs
     id="defs1" />
  <sodipodi:namedview
     id="namedview1"
     pagecolor="#ffffff"
     bordercolor="#000000"
     borderopacity="0.25"
     inkscape:showpageshadow="2"
     inkscape:pageopacity="0.0"
     inkscape:pagecheckerboard="0"
     inkscape:deskcolor="#d1d1d1"
     showgrid="false"
     inkscape:zoom="1.4587711"
     inkscape:cx="346.52456"
     inkscape:cy="134.01692"
     inkscape:window-width="1920"
     inkscape:window-height="1011"
     inkscape:window-x="0"
     inkscape:window-y="0"
     inkscape:window-maximized="1"
     inkscape:current-layer="layer7" />
  <g
     inkscape:groupmode="layer"
     id="layer7"
     inkscape:label="Layer 1"
     transform="translate(-34.563069,-101.37161)">
    <path
       style="fill:#000000"
       d="m 452.79999,436.84878 c -11.56609,-1.72289 -22.35764,-6.41111 -26.46196,-11.49599 l -3.21296,-3.98055 1.90381,-9.072 c 1.46345,-6.97357 2.97085,-10.69658 6.51683,-16.09544 5.31251,-8.08845 6.32029,-12.55361 6.12501,-27.13813 -0.24032,-17.9476 -3.81671,-27.45177 -16.25604,-43.2 -4.17061,-5.28 -9.06474,-12.56703 -10.87584,-16.19341 l -3.29292,-6.59341 -4.26849,3.09208 c -12.76701,9.24838 -42.62259,13.43621 -76.49268,10.72959 -21.79245,-1.74147 -38.52382,-5.80492 -56.88476,-13.81526 -2.78667,-1.21574 -5.06667,-1.81913 -5.06667,-1.34085 0,0.97689 1.86076,7.00434 3.16573,10.2546 0.47109,1.17333 0.88913,3.31211 0.92898,4.75283 0.0399,1.44073 0.77853,4.08073 1.64153,5.86667 6.5114,13.47512 7.27885,16.02087 7.08536,23.50331 -0.81065,31.34738 -0.89053,30.41111 3.14075,36.81052 2.03262,3.22667 4.27191,6.46024 4.9762,7.18572 0.70429,0.72549 2.07793,3.71984 3.05255,6.65412 0.97461,2.93429 2.21532,5.60904 2.75713,5.9439 0.54181,0.33486 0.98511,3.71557 0.98511,7.51269 0,5.63672 -0.34261,7.01335 -1.86667,7.50044 -1.02667,0.32812 -2.82667,1.0151 -4,1.52662 -5.41219,2.3595 -46.97139,4.08977 -52.03065,2.16624 -3.58338,-1.36239 -4.77189,-5.30543 -5.4444,-18.06243 -0.48107,-9.1257 -0.22885,-12.08419 1.45502,-17.06666 2.46493,-7.29359 4.29185,-17.13887 4.27226,-23.02321 -0.0128,-3.85672 -0.57437,-4.8079 -5.06667,-8.58241 -2.77872,-2.33474 -7.60308,-6.77474 -10.72079,-9.86667 -3.1177,-3.09192 -6.05225,-5.62168 -6.52121,-5.62168 -0.46896,0 -2.12749,-1.27485 -3.68564,-2.833 l -2.83299,-2.83299 -2.49267,2.34173 c -4.87314,4.57808 -8.45927,13.54556 -8.97421,22.44091 -0.82824,14.30731 1.26304,26.02016 6.3949,35.81668 10.5001,20.04427 11.84241,23.095 12.31199,27.98197 0.43007,4.47582 0.13344,5.46208 -2.40675,8.00227 -1.59351,1.59351 -4.40349,3.13816 -6.2444,3.43256 -6.67141,1.0669 -30.09167,2.54232 -33.21379,2.09238 -8.23035,-1.1861 -10.90708,-1.79649 -14.02787,-3.19882 -1.84866,-0.8307 -3.69958,-1.51036 -4.11316,-1.51036 -0.41359,0 -2.67002,-1.51913 -5.01431,-3.37584 l -4.26234,-3.37583 0.75806,-8.08961 c 0.52867,-5.64173 2.04979,-11.2935 5.02691,-18.67765 l 4.26886,-10.58804 -1.15947,-8.98204 c -1.29581,-10.03829 -5.8067,-20.71552 -12.39786,-29.34561 -2.14283,-2.8057 -4.85326,-7.26519 -6.02318,-9.90997 -2.03537,-4.6013 -2.05513,-5.1568 -0.45804,-12.87949 3.60787,-17.44583 1.49796,-27.71355 -9.7548,-47.47087 -10.25891,-18.01234 -13.64899,-24.9417 -16.97443,-34.69587 -1.5643,-4.58838 -3.02181,-8.54971 -3.23891,-8.80294 -0.21711,-0.25323 -1.94755,1.0081 -3.845432,2.80296 -1.897878,1.79486 -6.810688,4.84784 -10.917354,6.7844 -6.618188,3.12091 -8.747395,3.57462 -18.737166,3.99264 -10.622826,0.44452 -11.614809,0.30303 -17.262035,-2.46215 -10.058647,-4.92523 -19.539571,-15.93722 -18.413114,-21.38663 0.235433,-1.13894 0.715173,-3.86496 1.06609,-6.05783 0.88561,-5.53416 4.094598,-7.19297 7.580198,-3.91842 1.411316,1.32586 2.566028,3.07461 2.566028,3.88612 0,1.44397 4.146304,9.42736 7.051862,13.57781 1.759425,2.51326 8.875815,4.80305 14.996525,4.82533 5.665852,0.0206 18.621164,-6.39836 22.352932,-11.07524 4.614502,-5.78317 8.590944,-16.8438 9.833426,-27.35206 0.76885,-6.50255 2.9684,-15.13185 6.57088,-25.77896 11.54014,-34.10679 19.82772,-44.17936 41.06104,-49.90486 4.69333,-1.26554 21.49333,-6.45613 37.33333,-11.53465 27.46098,-8.80436 29.24634,-9.23285 38.4,-9.21618 9.07996,0.0165 10.37868,0.3264 23.97467,5.72003 43.53613,17.27109 79.31337,25.42892 98.66031,22.49625 13.71686,-2.07925 26.66272,-7.25658 42.7198,-17.0846 13.78782,-8.43908 20.29452,-10.31655 39.05389,-11.2688 15.66291,-0.79507 14.59654,-0.97111 27.21919,4.49347 4.85954,2.10378 11.75301,1.80008 28.6388,-1.26172 15.97477,-2.89661 21.28061,-2.80397 28.8,0.50284 5.33902,2.34795 16.66926,11.34246 32.53333,25.82659 13.3743,12.21092 34.0448,29.7214 35.08303,29.71966 0.35766,-5.9e-4 1.99799,-2.40059 3.64517,-5.33333 1.64717,-2.93274 3.20026,-5.33225 3.45131,-5.33225 0.67334,0 6.27612,11.47143 8.51164,17.42718 1.12349,2.99315 3.09308,5.87579 4.6896,6.86359 5.29426,3.27568 7.49622,5.9224 9.20347,11.06244 0.94631,2.84907 2.12924,5.18013 2.62874,5.18013 0.4995,0 1.70955,3.72 2.68898,8.26666 0.97944,4.54667 2.49326,10.81081 3.36404,13.92032 1.15409,4.12113 1.38651,8.02448 0.85742,14.4 -0.57973,6.98578 -0.36239,9.65309 1.07969,13.25092 2.67103,6.66391 4.66536,6.68664 30.17898,0.34396 23.48611,-5.83863 26.61593,-6.25646 27.60273,-3.68491 0.98362,2.56328 -1.50276,6.88957 -14.33483,24.94249 -6.45292,9.07836 -11.51975,17.06076 -11.25961,17.73868 1.20138,3.13073 18.38195,-3.74557 29.9077,-11.97017 20.49324,-14.62368 32.55957,-31.49412 39.65088,-55.4376 1.23196,-4.15963 3.21006,-8.44093 4.39578,-9.514 2.0908,-1.89214 2.203,-1.88924 3.71727,0.0963 7.84428,10.28557 2.47142,47.45191 -10.46799,72.41147 -9.8419,18.98459 -27.67843,36.44572 -47.24411,46.24979 -5.03916,2.52504 -7.29006,4.47053 -9.92728,8.58027 -1.87578,2.92316 -5.57344,7.08719 -8.21702,9.25341 -4.09624,3.35656 -4.75719,4.43218 -4.47272,7.27882 0.32799,3.28221 0.24581,3.34589 -4.72976,3.66523 -4.32973,0.27789 -5.4421,-0.0835 -7.6756,-2.49346 -1.43662,-1.55014 -3.7578,-6.25639 -5.15817,-10.45832 -2.47325,-7.42122 -4.09546,-9.12164 -6.94674,-7.28168 -1.07169,0.69157 -1.12978,1.9938 -0.26173,5.86724 1.83969,8.20904 -1.40873,17.84302 -6.68972,19.84004 -3.02061,1.14225 -2.94284,1.201 -9.82091,-7.41939 -6.26046,-7.84633 -9.45254,-9.53724 -18.11691,-9.59689 -7.72645,-0.0532 -12.03516,-3.08893 -27.39592,-19.30203 -8.01881,-8.46375 -16.08503,-17.2993 -17.92495,-19.63456 -2.59131,-3.28894 -5.25368,-5.00303 -11.81222,-7.60495 -4.6568,-1.84746 -8.46691,-3.13517 -8.46691,-2.86159 0,0.55911 5.16741,7.08654 10.4,13.13719 1.90667,2.20475 3.46667,4.55047 3.46667,5.2127 0,0.66223 0.44765,1.20405 0.99479,1.20405 0.54713,0 1.27235,0.87455 1.61161,1.94344 0.33925,1.06889 2.47423,2.98736 4.74439,4.26327 4.68402,2.63256 6.1698,6.87124 6.05012,17.25996 -0.0372,3.22666 0.36264,6.17839 0.88846,6.55938 0.55572,0.40267 0.37984,4.64572 -0.42005,10.13334 -1.97432,13.54483 -2.61988,30.24061 -1.16928,30.24061 0.64165,0 1.16663,0.8022 1.16663,1.78268 0,0.98047 0.73215,2.5917 1.62702,3.58051 2.05793,2.27399 5.83964,12.92757 5.83964,16.45105 0,3.3509 -2.98929,8.34061 -6.78594,11.32706 -2.38032,1.87236 -5.25356,2.48472 -15.70182,3.34643 l -12.78837,1.05471 -8.40582,-3.38839 c -8.31278,-3.35089 -12.5304,-6.38614 -11.00016,-7.91638 0.43407,-0.43407 0.63603,-5.33972 0.44881,-10.90145 -0.2492,-7.40317 0.0656,-10.74056 1.17517,-12.45756 0.83356,-1.28993 1.88196,-4.02533 2.32978,-6.07866 0.44781,-2.05333 1.22441,-5.65333 1.72578,-8 0.50137,-2.34667 0.63584,-7.16834 0.29883,-10.71483 -0.58086,-6.11253 -0.82545,-6.57057 -4.69916,-8.8 -2.24753,-1.29351 -4.68038,-2.35184 -5.40634,-2.35184 -0.72596,0 -2.31741,-0.93709 -3.53657,-2.08242 -1.21915,-1.14533 -3.95751,-2.80981 -6.08526,-3.69884 l -3.86862,-1.61641 -0.39499,11.53997 c -0.35519,10.37729 -0.67997,11.95898 -3.2235,15.69883 -2.13141,3.13389 -3.14498,6.54112 -4.11256,13.82486 -1.39243,10.48192 -1.33478,10.70725 5.51562,21.55472 2.92836,4.63699 7.26447,17.07381 7.29263,20.91668 0.0222,3.02882 -5.70902,10.77509 -8.00048,10.81339 -2.28887,0.0383 -9.04369,2.87549 -9.04369,3.79861 0,1.31441 -12.35244,1.00885 -22.93333,-0.56728 z m 12.07516,-7.96586 c 0.188,-1.91738 -0.40811,-5.36041 -1.3247,-7.65119 -1.52726,-3.81701 -1.52172,-4.16506 0.0664,-4.16506 3.22781,0 5.71648,4.25042 5.71648,9.76321 0,4.87908 0.1588,5.17013 2.82091,5.17013 h 2.82091 l -0.64744,-6.93334 c -0.58595,-6.27472 -0.45945,-6.93333 1.33163,-6.93333 2.215,0 3.26603,1.98704 3.29032,6.22057 0.0212,3.69102 1.28279,5.6209 2.98627,4.5681 1.51611,-0.93701 0.60744,-9.722 -1.0056,-9.722 -1.31644,0 -1.15828,-2.93322 0.20355,-3.77488 1.52723,-0.94388 5.26611,2.56624 5.26611,4.94391 0,1.04779 0.43702,2.17516 0.97116,2.50527 1.1463,0.70845 -1.01923,-7.83021 -3.43119,-13.52918 -0.92836,-2.19352 -3.27463,-6.27352 -5.21394,-9.06667 -3.17078,-4.5668 -3.52603,-5.83072 -3.52603,-12.54512 0,-4.10667 0.41953,-8.66667 0.93227,-10.13333 0.91995,-2.63143 0.90101,-2.62752 -1.4332,0.29521 -1.30101,1.62903 -2.91036,5.82903 -3.57632,9.33333 -0.9355,4.92259 -1.63932,6.37146 -3.09508,6.37146 -1.58863,0 -1.86306,-0.9181 -1.74931,-5.85223 0.0808,-3.50337 0.72091,-6.33855 1.59495,-7.06394 0.80301,-0.66644 1.46003,-1.80285 1.46003,-2.52535 0,-0.7225 1.18237,-2.58944 2.6275,-4.14875 1.44512,-1.55932 4.32512,-5.05843 6.4,-7.77582 l 3.7725,-4.94069 v -11.44968 c 0,-13.42631 0.39474,-14.60349 10.77151,-32.12248 15.24579,-25.73928 18.86938,-36.62144 19.84582,-59.59975 0.6913,-16.26839 -1.10968,-28.45274 -5.58926,-37.81351 -1.39291,-2.91071 -2.37581,-5.44896 -2.18421,-5.64056 0.9099,-0.9099 7.09444,10.68538 9.24472,17.33275 2.07223,6.40612 2.46643,10.24888 2.77528,27.05449 0.19799,10.77329 0.65133,20.05922 1.00741,20.63538 0.79652,1.28878 15.28657,8.31013 17.14974,8.31013 0.98976,0 0.80243,-1.38376 -0.70513,-5.20845 -8.71835,-22.11866 -6.62217,-55.90226 5.34834,-86.19754 3.24581,-8.21459 10.47395,-22.14977 11.13879,-21.47454 0.18802,0.19096 -1.74467,6.43605 -4.29487,13.87798 -9.0959,26.54345 -12.81488,50.37504 -11.06371,70.89748 1.06509,12.48211 4.83506,25.44496 9.37817,32.2464 4.50429,6.74332 34.21377,38.4549 37.73113,40.27379 1.63519,0.84559 6.19954,1.82504 10.143,2.17655 9.38177,0.83628 11.71607,2.14258 18.84513,10.54592 l 5.96375,7.02973 1.69282,-4.05148 c 2.13699,-5.11454 1.42857,-12.97965 -1.35682,-15.06393 -1.87158,-1.40049 -1.78693,-1.63675 1.61735,-4.5141 8.05256,-6.80615 13.10859,-4.74063 16.93143,6.91693 2.47078,7.53452 4.88968,11.21193 7.37492,11.21193 0.78908,0 1.43468,-1.02163 1.43468,-2.27029 0,-1.33257 2.9047,-5.34943 7.03242,-9.72503 l 7.03242,-7.45474 -4.47463,-2.54163 c -2.46105,-1.3979 -4.80214,-2.54164 -5.20244,-2.54164 -0.40029,0 -1.56812,-1.42254 -2.59516,-3.16119 -1.02705,-1.73865 -2.46786,-3.77865 -3.2018,-4.53333 -1.81682,-1.86817 -3.92414,-9.3321 -3.92414,-13.89897 0,-4.3782 2.34219,-10.50004 4.79661,-12.53703 0.94592,-0.78505 2.18688,-2.29998 2.75767,-3.36652 0.93188,-1.74123 0.75553,-1.83184 -1.72768,-0.88773 -14.17293,5.38854 -27.09673,-8.71293 -25.28316,-27.58707 0.44436,-4.62457 0.11719,-5.81965 -2.55017,-9.31505 -2.91913,-3.82532 -3.09057,-4.6764 -3.7257,-18.49481 -0.69899,-15.20785 -3.98031,-33.1879 -6.60682,-36.2022 -0.8384,-0.96219 -2.08931,-3.51012 -2.77978,-5.66207 -0.69048,-2.15195 -2.31116,-4.60367 -3.60152,-5.44826 -2.34331,-1.5338 -2.34625,-1.52592 -2.45764,6.57929 -0.0792,5.7597 -0.91046,10.39097 -2.86424,15.95696 -1.514,4.31311 -3.04276,8.13206 -3.39725,8.48655 -1.15059,1.15059 -8.16164,-3.34677 -11.74672,-7.53513 -1.92208,-2.24551 -4.09443,-6.22481 -4.82744,-8.84289 -1.60699,-5.73959 -0.92053,-18.34312 1.34682,-24.72779 l 1.60181,-4.51057 -9.21768,-7.36055 c -5.06973,-4.0483 -15.69006,-13.23312 -23.60073,-20.41071 -18.94834,-17.1924 -30.48461,-26.53925 -35.71638,-28.9379 -5.51552,-2.52876 -12.71721,-2.50522 -26.34585,0.0861 -6.04311,1.14903 -13.14748,2.22903 -15.78748,2.4 -4.51919,0.29267 -4.65832,0.39174 -2.37813,1.69342 1.33202,0.76041 5.89202,2.26518 10.13333,3.34392 6.29539,1.60119 8.79781,1.76251 13.62727,0.87851 10.23198,-1.87289 15.3578,0.38005 33.74873,14.83355 26.23942,20.62166 39.40726,32.58972 43.28104,39.33755 0.35029,0.61018 -2.80916,-2.27488 -7.02101,-6.41126 -8.39382,-8.24342 -48.88831,-39.2735 -55.28607,-42.36456 -5.8835,-2.8426 -12.09211,-2.38744 -25.61818,1.87812 -10.53907,3.32358 -13.17979,3.76353 -20.62031,3.43543 -7.23471,-0.31903 -9.91312,-1.01659 -17.6,-4.58369 -13.34694,-6.19367 -16.10159,-5.95665 -29.17134,2.51 -29.81601,19.31495 -50.46165,25.84344 -76.89782,24.31636 -18.84634,-1.08866 -38.57118,-6.27244 -62.37348,-16.39204 -11.84869,-5.03749 -34.22402,-16.00767 -34.22402,-16.77935 0,-0.25505 3.72,1.23954 8.26667,3.32132 24.56072,11.24561 52.34088,20.7906 68.56996,23.55997 8.77894,1.49806 11.53671,1.58382 16.62301,0.51696 5.78595,-1.21361 26.7153,-10.56397 25.76745,-11.51181 -0.24572,-0.24572 -4.27886,0.11177 -8.96253,0.79442 -8.22076,1.19819 -9.47448,1.06654 -36.19017,-3.80032 -29.86677,-5.4409 -37.84405,-7.7033 -66.8752,-18.96619 l -18.93415,-7.34567 -7.19918,1.65037 c -3.95956,0.90771 -19.91919,5.67378 -35.46586,10.59127 -15.54667,4.9175 -32.43371,10.19046 -37.52676,11.7177 -16.58369,4.9729 -23.26028,13.43668 -33.72578,42.75354 -2.93199,8.21334 -5.88806,18.77334 -6.56904,23.46667 -2.01755,13.90491 -3.33731,18.66047 -7.230687,26.05475 -4.822205,9.15829 -6.730957,11.10122 -15.852803,16.13659 -6.649414,3.67055 -8.493908,4.20718 -14.426241,4.19711 -7.556559,-0.0128 -16.108081,-2.2088 -18.701775,-4.80249 -0.931926,-0.93193 -3.512685,-5.39001 -5.735019,-9.90685 -3.698691,-7.5175 -4.101187,-7.97391 -4.756501,-5.39353 -0.88618,3.48945 3.185832,11.61565 8.044101,16.05299 10.663861,9.73994 23.647207,10.62875 40.480509,2.77121 8.58591,-4.00778 12.451541,-7.47874 15.093306,-13.5523 2.53657,-5.83173 3.71486,-4.94256 5.68642,4.29117 2.04516,9.57844 6.49598,19.74007 16.46821,37.59843 4.7403,8.48897 8.61873,15.72539 8.61873,16.08094 0,0.35555 3.40192,4.58326 7.55983,9.39492 7.75745,8.97716 11.33839,14.33502 14.26512,21.34373 2.41138,5.77458 1.29688,4.91817 -2.61114,-2.00646 -3.27765,-5.80767 -12.68111,-16.8818 -13.57551,-15.9874 -0.24145,0.24146 0.11697,3.48885 0.7965,7.21644 1.02737,5.63565 0.92034,8.79478 -0.63534,18.75233 l -1.87085,11.97491 3.31568,5.09176 c 13.49373,20.72177 16.22477,27.28463 16.98876,40.82509 0.48717,8.63425 0.32446,9.49908 -3.41176,18.13333 -2.48952,5.75319 -4.21097,11.72755 -4.71042,16.34763 l -0.78709,7.28096 5.11768,2.59332 c 5.66149,2.86889 16.59454,5.73793 21.95854,5.76232 3.0053,0.0137 3.46666,-0.34478 3.46666,-2.69339 0,-1.49004 -0.93943,-4.5506 -2.08763,-6.80126 -2.17323,-4.25988 -1.98069,-5.68917 0.63137,-4.68682 2.09911,0.8055 4.25266,5.28636 5.15722,10.73057 0.56621,3.40778 1.23796,4.53334 2.70556,4.53334 5.73517,0 6.77091,-3.2039 3.19348,-9.8786 -2.53782,-4.73503 -2.57796,-5.05474 -0.63469,-5.05474 1.83714,0 7.03469,8.61245 7.03469,11.65661 0,2.30422 0.80946,2.65113 3.6461,1.56261 2.39976,-0.92088 2.12716,-6.38893 -0.53309,-10.69331 C 196.15624,416.10285 196.15151,416 198.14769,416 c 2.66228,0 4.99473,2.73289 6.60018,7.73333 1.47376,4.59029 1.71485,4.73911 3.19546,1.97257 1.64353,-3.07097 -0.819,-9.85539 -8.81012,-24.27243 -6.2325,-11.24426 -7.13726,-13.63047 -8.22788,-21.70014 -0.67395,-4.98667 -1.5688,-11.46667 -1.98856,-14.4 L 188.15358,360 l -2.92182,5.6534 c -1.607,3.10937 -3.35486,8.38937 -3.88414,11.73333 l -0.96233,6.07993 0.24498,-6.9969 c 0.20292,-5.79567 1.12373,-8.90881 5.36355,-18.13333 9.6982,-21.10027 11.45684,-24.23267 15.9911,-28.48253 4.81245,-4.51058 17.39053,-27.51469 22.57372,-41.28516 l 2.65716,-7.05941 -4.30934,-7.14497 c -5.19627,-8.61555 -9.10528,-20.50955 -10.067,-30.63103 -0.99622,-10.48461 -4.11729,-20.33984 -8.61402,-27.2 -2.95633,-4.51016 -3.22483,-5.25008 -1.16118,-3.2 1.47637,1.46666 4.33024,5.41771 6.34192,8.78009 l 3.6576,6.11343 0.68771,-5.18422 c 0.84616,-6.37868 4.72286,-17.96519 8.51278,-25.44264 3.26053,-6.43297 4.76251,-7.55984 2.13262,-1.6 -5.6035,12.69857 -9.68973,34.53659 -8.33289,44.53334 1.61458,11.89564 8.24047,28.28022 13.60645,33.64621 3.57067,3.57067 27.91903,18.05512 38.31305,22.79183 25.00234,11.39394 39.37077,14.43816 71.74983,15.20155 27.61765,0.65113 39.8885,-0.66886 52.26052,-5.62172 14.04696,-5.62338 23.32859,-21.58584 27.2365,-46.84106 2.33383,-15.08265 1.52663,-42.6074 -1.69886,-57.92916 -1.48087,-7.0344 1.78908,1.25536 3.77504,9.57025 6.89861,28.88341 4.50813,62.29789 -5.85448,81.83485 l -3.59942,6.78609 2.05712,5.48058 c 1.13142,3.01432 4.69149,8.84058 7.91128,12.94725 3.21979,4.10666 8.46054,11.33058 11.64613,16.05314 3.18558,4.72256 8.11866,10.47266 10.9624,12.77799 8.71189,7.06244 8.31264,6.20337 8.74431,18.81522 0.3767,11.00555 0.2934,11.55365 -1.75592,11.55365 -1.99072,0 -2.17876,-0.80226 -2.518,-10.74297 -0.31194,-9.1406 -0.663,-10.90864 -2.35365,-11.85369 -2.29558,-1.28321 -4.65517,-3.74525 -7.45113,-7.77468 -3.19194,-4.60009 -3.2111,-2.30502 -0.0323,3.86527 2.45348,4.76236 3.01422,7.40416 3.39045,15.97349 0.66839,15.22355 -1.12288,24.01221 -6.31146,30.96648 -2.3245,3.11554 -4.49394,6.87245 -4.82098,8.34869 -0.32703,1.47624 -1.02535,4.36407 -1.55181,6.41741 -1.94755,7.59597 -1.37862,9.38727 4.08117,12.84977 2.77765,1.76153 6.82489,3.68064 8.99388,4.26468 4.14814,1.11698 18.79848,3.00502 20.62252,2.6577 0.58667,-0.11171 1.22049,-1.77187 1.4085,-3.68924 z M 606.9373,325.1563 c 0.008,-2.69833 4.27073,-8.41216 7.07072,-9.47671 2.79415,-1.06234 4.6718,-0.82049 10.25863,1.32134 4.66065,1.78677 3.42917,2.99908 -3.04651,2.99908 -5.0715,0 -6.61074,0.49969 -10.13333,3.28963 -2.52479,1.99967 -4.15193,2.73164 -4.14951,1.86666 z M 324.07937,300.30426 c -21.45026,-3.0614 -45.92414,-10.32 -62.21271,-18.45139 -6.60566,-3.2976 -19.87748,-12.37429 -22.54713,-15.42014 -2.20355,-2.51408 -1.36434,-2.12515 5.74045,2.6604 17.34305,11.68169 52.86365,23.12145 85.60668,27.57047 15.11418,2.05367 40.54077,1.81607 48.95909,-0.4575 3.75416,-1.01391 7.00486,-1.66436 7.22378,-1.44544 0.44634,0.44633 -6.49598,3.12132 -12.98288,5.00249 -6.61372,1.91796 -37.76772,2.25656 -49.78728,0.54111 z M 592.9956,280.24971 c -4.72793,-3.18615 -6.92492,-8.76563 -5.15491,-13.09142 L 589.13298,264 l 0.71733,3.90819 c 1.36071,7.4135 4.68575,10.73694 12.14149,12.13564 2.84508,0.53374 3.64893,1.04342 2.64703,1.67835 -2.61994,1.66031 -8.00509,0.97927 -11.64323,-1.47247 z m 3.39571,-5.72244 c -4.78082,-3.34862 -6.51707,-12.75296 -3.15065,-17.06538 3.28545,-4.20869 14.69795,-1.19857 18.24929,4.81337 2.2994,3.89257 2.38365,10.09875 0.16717,12.31522 -2.28358,2.28359 -11.97256,2.24347 -15.26581,-0.0632 z m 5.37333,-8.0355 c 1.55723,-1.07714 3.7039,-1.95843 4.77037,-1.95843 1.81637,0 1.80595,-0.12792 -0.16466,-2.02186 -4.03249,-3.87561 -6.44918,-3.76537 -9.0309,0.41193 -1.29081,2.08858 -2.06364,4.53565 -1.7174,5.43795 0.6537,1.70352 1.23091,1.52784 6.14259,-1.86959 z M 111.97048,211.59116 c -2.93268,-14.12663 3.29316,-35.32679 17.40704,-59.27428 3.35491,-5.69239 7.65743,-11.51178 9.56115,-12.93198 4.94258,-3.68722 13.26309,-6.51461 38.15283,-12.9647 12.04033,-3.12021 24.88033,-6.88758 28.53333,-8.37193 3.65301,-1.48435 6.64183,-2.53985 6.64183,-2.34557 0,0.84252 -8.55417,5.28455 -15.44383,8.01971 -4.11923,1.63532 -15.76072,5.42893 -25.86998,8.43026 -27.23022,8.08436 -29.0784,9.05321 -35.13755,18.4197 -7.8487,12.13284 -14.83589,26.09248 -18.60011,37.16097 -2.85518,8.39549 -3.46068,11.8254 -3.53069,19.99975 -0.0465,5.42653 -0.17047,9.86653 -0.27555,9.86666 -0.10507,1.4e-4 -0.75238,-2.70373 -1.43847,-6.00859 z m 146.54993,204.77133 4.12043,-0.6807 -0.5246,-4.90756 c -0.28854,-2.69915 -0.87408,-5.74756 -1.30122,-6.77422 -0.49712,-1.1949 -0.29802,-1.86667 0.55326,-1.86667 2.41744,0 4.16337,3.66008 4.19779,8.8 l 0.0339,5.06667 h 3.86905 3.86904 l -0.52634,-5.47774 c -0.34038,-3.54236 -1.14207,-5.82232 -2.26905,-6.453 -2.04611,-1.14507 -2.34221,-4.07661 -0.40937,-4.05293 3.5227,0.0431 6.13334,4.83302 6.13334,11.25311 0,3.19704 0.33978,3.66389 2.66666,3.66389 2.46387,0 2.66667,-0.37893 2.66667,-4.98268 0,-3.14626 -0.65281,-5.70402 -1.77124,-6.93987 -2.11648,-2.33869 -1.61856,-3.13963 1.45254,-2.33652 2.51734,0.6583 3.48253,3.21475 3.50414,9.28129 0.01,2.80495 0.43324,3.94205 1.34789,3.62126 1.4463,-0.50725 1.29683,-10.44075 -0.17198,-11.42999 -0.44655,-0.30075 -1.38685,-2.22682 -2.08956,-4.28016 -0.70272,-2.05333 -2.56179,-5.65333 -4.13129,-8 -6.19678,-9.26526 -6.51108,-10.46297 -6.52543,-24.86677 -0.007,-7.44328 -0.0364,-15.93323 -0.0645,-18.86656 -0.0444,-4.64414 -3.13627,-14.56538 -6.55278,-21.02658 -1.10826,-2.09591 -5.14234,-16.44091 -6.3471,-22.56996 -0.83173,-4.23134 -1.38534,-4.85297 -6.9174,-7.76731 -1.76,-0.92718 -7.16939,-4.10023 -12.02087,-7.05121 -4.85148,-2.95099 -8.97075,-5.17482 -9.15393,-4.94185 -0.18318,0.23297 -1.44279,3.30357 -2.79912,6.82357 -1.35633,3.52001 -6.30373,13.94252 -10.99421,23.16114 -8.35828,16.42728 -8.49284,16.81503 -6.75542,19.46667 0.975,1.48804 2.22511,2.70553 2.77802,2.70553 0.55291,0 4.3653,3.36 8.47196,7.46667 4.10667,4.10666 7.76244,7.46666 8.12393,7.46666 0.3615,0 2.82801,1.77876 5.48113,3.95279 4.45546,3.65092 4.77609,4.24152 4.19833,7.73334 -0.59949,3.62314 -4.58287,20.43183 -6.9627,29.38054 -0.66913,2.51611 -0.85972,8.096 -0.46452,13.6 0.54273,7.55871 0.99598,9.34052 2.38377,9.37113 0.9425,0.0208 2.91363,0.72378 4.38029,1.5622 2.81628,1.60993 11.6201,2.03577 18.52042,0.89582 z m 4.62657,-44.09582 c -1.35316,-5.02667 -0.74444,-10.74884 2.03954,-19.17228 l 2.78652,-8.43115 -2.18325,-6.46495 c -1.20078,-3.55572 -1.72415,-6.46495 -1.16303,-6.46495 1.89725,0 7.37323,9.95898 7.37323,13.40944 0,1.86548 -1.24991,6.2115 -2.77759,9.65783 -1.52767,3.44634 -3.35808,9.38606 -4.06758,13.1994 -1.03616,5.56911 -1.43123,6.40863 -2.00784,4.26666 z m 269.72879,38.27738 c 0.40426,-0.65411 0.79759,-3.17411 0.87408,-5.6 0.0765,-2.42589 0.56732,-5.08343 1.09075,-5.90563 1.56932,-2.46511 3.82605,1.72879 3.82605,7.11034 0,3.88617 0.31475,4.60993 1.86667,4.29233 1.57838,-0.32301 1.81896,-1.40585 1.5578,-7.01155 -0.27615,-5.92735 -0.0926,-6.62953 1.73333,-6.62953 2.06709,0 3.37553,3.55317 3.37553,9.16652 0,1.80989 0.4522,2.32633 1.63839,1.87115 1.33372,-0.5118 1.50646,-1.79486 0.92889,-6.89986 -0.59418,-5.25186 -0.4415,-6.27115 0.93939,-6.27115 0.96358,0 2.35149,1.88414 3.33938,4.53334 l 1.6905,4.53333 -0.57359,-3.94837 c -0.31547,-2.1716 -2.22722,-7.2116 -4.24832,-11.2 -3.48344,-6.87413 -3.67662,-7.83467 -3.71102,-18.45163 -0.0247,-7.63168 -0.36572,-10.69024 -1.07028,-9.6 -0.5687,0.88 -1.04135,2.92 -1.05034,4.53333 -0.0112,2.00462 -0.57188,2.93334 -1.77104,2.93334 -2.70078,0 -1.31886,-13.81691 1.82327,-18.22962 2.62245,-3.6829 3.86825,-13.67228 2.68725,-21.54774 -0.60152,-4.01123 -1.84294,-5.9516 -7.60401,-11.88533 -3.78683,-3.90031 -6.88513,-7.80685 -6.88513,-8.6812 0,-0.87436 -0.65859,-1.84246 -1.46353,-2.15134 -0.80494,-0.30889 -3.06022,-2.81382 -5.01175,-5.56653 -1.95152,-2.7527 -3.81293,-5.24491 -4.13647,-5.53824 -1.21555,-1.10207 -3.25492,-5.36022 -3.25492,-6.79619 0,-0.82049 -1.13372,-2.23463 -2.51937,-3.14255 -2.47107,-1.6191 -2.5449,-1.56521 -3.85015,2.81065 -2.25892,7.57302 -7.2477,17.75489 -15.54263,31.72182 -4.37499,7.36655 -7.95452,14.16841 -7.95452,15.11524 0,1.04122 1.25056,1.99619 3.16458,2.41658 1.74051,0.38228 4.84512,1.83551 6.89913,3.2294 2.05401,1.39389 6.99401,3.50504 10.97777,4.69146 5.81795,1.73266 8.2384,3.16751 12.30086,7.29199 4.20368,4.26786 5.05766,5.80408 5.05766,9.09824 0,3.1744 -0.40103,3.96336 -2.01462,3.96336 -1.43717,0 -2.20508,-1.01522 -2.67909,-3.54193 -0.40936,-2.18205 -1.87171,-4.43447 -3.80885,-5.86666 -1.72941,-1.27861 -3.29099,-2.32475 -3.47016,-2.32475 -0.17918,0 -0.31862,3.96 -0.30986,8.8 0.0155,8.54915 -1.62088,16.68413 -4.4521,22.13334 -1.77384,3.41409 -1.791,17.8244 -0.0254,21.33333 2.25854,4.48859 19.5138,8.64429 21.63587,5.21071 z m 141.5295,-95.27047 c 18.49483,-10.05492 34.18002,-26.78616 42.99257,-45.85978 7.41942,-16.05836 13.33955,-43.75272 11.68895,-54.68086 l -0.77528,-5.13294 -4.05102,11.49498 c -5.23333,14.84984 -11.14019,24.66421 -21.15035,35.14172 -13.84821,14.49477 -28.94747,24.40709 -42.85703,28.13468 -10.85625,2.90934 -17.4277,10.75962 -14.95193,17.86163 0.60434,1.7336 1.10557,4.40038 1.11386,5.92617 0.0193,3.55533 6.75549,11.11208 11.72494,13.15318 3.34073,1.37213 4.00283,1.34154 6.39333,-0.29545 1.46667,-1.00435 5.90905,-3.58885 9.87196,-5.74333 z m -3.80495,-7.0298 c 22.27339,-11.42005 39.47035,-33.30119 49.02379,-62.37711 4.00481,-12.18864 4.57839,-11.82256 1.39285,0.88895 -1.20066,4.79108 -4.75422,13.99105 -7.89681,20.44438 -9.34971,19.19975 -22.41896,32.77834 -39.59807,41.14131 -11.30997,5.5058 -13.69509,5.42618 -2.92176,-0.0975 z m -26.35794,-28.76412 c 1.08285,-0.57953 6.71939,-7.65953 12.52563,-15.73334 14.89177,-20.70757 15.53248,-21.66803 14.88579,-22.31472 -0.3184,-0.3184 -8.17077,1.34944 -17.4497,3.7063 -9.27893,2.35687 -19.57318,4.82709 -22.8761,5.48938 l -6.00532,1.20415 -0.49852,6.0115 c -0.49746,5.99869 1.6587,14.45583 4.58426,17.98091 3.25251,3.91903 10.84558,5.79033 14.83396,3.65582 z m -4.65299,-3.21299 c 1.81879,-3.64551 13.93287,-18.82707 19.88399,-24.91895 7.20697,-7.37743 6.99757,-6.86292 -2.11048,5.18562 -6.41351,8.48408 -19.29839,22.78973 -17.77351,19.73333 z M 593.00344,197.1634 c 1.85315,-8.64092 1.35478,-17.1504 -1.53297,-26.175 -1.46456,-4.57695 -3.09323,-8.987 -3.61926,-9.80011 -1.35475,-2.0941 -5.19572,6.8021 -7.3576,17.0412 -2.26339,10.71987 -0.77201,18.3097 4.74786,24.16247 3.53812,3.7515 3.83428,3.8661 5.19212,2.00913 0.79199,-1.08311 1.94843,-4.34007 2.56985,-7.23769 z M 365.24076,144.06916 c 11.02734,-2.87974 27.19958,-10.67375 42.31543,-20.3934 16.22318,-10.43166 18.55175,-10.67839 34.64522,-3.67081 11.21357,4.88274 11.83761,5.02551 19.62356,4.48992 4.42293,-0.30425 10.20168,-1.24152 12.84168,-2.08284 l 4.8,-1.52965 -6.4,-1.28901 c -3.52,-0.70896 -11.88758,-4.0275 -18.59463,-7.37453 -12.09202,-6.03429 -12.28528,-6.08851 -22.96545,-6.44252 -8.88967,-0.29467 -11.97612,0.0488 -17.67203,1.96664 -10.91405,3.67479 -17.91831,6.87301 -28.23455,12.89221 -5.28,3.08072 -14.16,8.25126 -19.73334,11.4901 -10.53495,6.1222 -21.63115,11.1871 -29.86666,13.63274 -8.61267,2.55764 19.11141,0.95639 29.24077,-1.68885 z"
       id="path1" />
  </g>
</svg>
